<svg xmlns="http://www.w3.org/2000/svg" xmlns:xlink="http://www.w3.org/1999/xlink" width="1024" zoomAndPan="magnify" viewBox="0 0 768 767.999994" height="1024" preserveAspectRatio="xMidYMid meet" version="1.0"><defs><g/><clipPath id="fdabb61223"><rect x="0" width="768" y="0" height="444"/></clipPath><clipPath id="e26c0ac93a"><rect x="0" width="761" y="0" height="444"/></clipPath></defs><g transform="matrix(1, 0, 0, 1, 0, -0.000000000000057351)"><g clip-path="url(#fdabb61223)"><g fill="#ff751f" fill-opacity="1"><g transform="translate(-4.656034, 345.061987)"><g><path d="M 336.59375 -300.21875 L 280.148438 -300.21875 L 280.148438 -81.535156 C 280.148438 -63.554688 269.695312 -54.773438 248.785156 -54.773438 L 26.761719 -54.773438 L 26.761719 -0.417969 L 248.785156 -0.417969 C 297.707031 -0.417969 336.59375 -34.285156 336.59375 -81.535156 Z M 336.59375 -300.21875 "/></g></g></g><g fill="#ff751f" fill-opacity="1"><g transform="translate(366.224072, 345.061987)"><g><path d="M 371.300781 -219.519531 C 371.300781 -263.839844 328.648438 -300.21875 283.910156 -300.21875 L 24.25 -300.21875 L 24.25 -246.695312 L 283.910156 -246.695312 C 298.960938 -246.695312 315.269531 -234.152344 315.269531 -219.519531 L 315.269531 -81.535156 C 315.269531 -63.554688 304.816406 -54.773438 283.910156 -54.773438 L 106.621094 -54.773438 C 86.132812 -54.773438 75.679688 -63.554688 75.679688 -81.535156 L 75.679688 -95.75 C 75.679688 -110.804688 91.570312 -122.929688 106.621094 -122.929688 L 283.910156 -122.929688 L 283.910156 -176.867188 L 106.621094 -176.867188 C 62.71875 -176.867188 19.234375 -141.328125 19.234375 -95.75 L 19.234375 -81.535156 C 19.234375 -33.867188 58.957031 -0.417969 106.621094 -0.417969 L 283.910156 -0.417969 C 331.996094 -0.417969 371.300781 -33.867188 371.300781 -81.535156 Z M 371.300781 -219.519531 "/></g></g></g></g></g><g transform="matrix(1, 0, 0, 1, 7, 324)"><g clip-path="url(#e26c0ac93a)"><g fill="#ff751f" fill-opacity="1"><g transform="translate(1.414674, 403.129078)"><g><path d="M 367.117188 -219.101562 C 367.117188 -267.183594 326.140625 -299.796875 279.730469 -299.796875 L 102.023438 -299.796875 C 55.609375 -299.796875 14.214844 -267.601562 14.214844 -219.101562 L 14.214844 -81.535156 C 14.214844 -35.121094 57.703125 -0.417969 102.023438 -0.417969 L 362.101562 -0.417969 L 362.101562 -53.9375 L 102.023438 -53.9375 C 86.972656 -53.9375 71.082031 -66.484375 71.082031 -81.535156 L 71.082031 -219.101562 C 71.082031 -237.078125 81.535156 -246.277344 102.023438 -246.277344 L 279.730469 -246.277344 C 300.21875 -246.277344 310.671875 -237.078125 310.671875 -219.101562 L 310.671875 -204.464844 C 310.671875 -189.832031 294.363281 -177.703125 279.730469 -177.703125 L 102.023438 -177.703125 L 102.023438 -123.765625 L 279.730469 -123.765625 C 324.46875 -123.765625 367.117188 -160.144531 367.117188 -204.464844 Z M 367.117188 -219.101562 "/></g></g></g><g fill="#ff751f" fill-opacity="1"><g transform="translate(406.163189, 403.129078)"><g><path d="M 330.742188 -54.773438 L 108.296875 -54.773438 C 87.808594 -54.773438 77.355469 -63.554688 77.355469 -81.535156 L 77.355469 -300.21875 L 20.488281 -300.21875 L 20.488281 -81.535156 C 20.488281 -33.867188 59.792969 -0.417969 108.296875 -0.417969 L 330.742188 -0.417969 Z M 330.742188 -54.773438 "/></g></g></g></g></g></svg>